<svg xmlns="http://www.w3.org/2000/svg" xmlns:xlink="http://www.w3.org/1999/xlink" style="margin:auto;background:#f1f2f3;display:block;z-index:1;position:relative" width="1280" height="577" preserveAspectRatio="xMidYMid" viewBox="0 0 1280 577">
    <g transform="translate(640,288.5) scale(1,1) translate(-640,-288.5)"><defs>
        <path id="path-t05hdwoe4m-1" d="M-35 -35L35 -35L35 35L-35 35Z" fill="none" stroke="inherit" stroke-width="4.333333333333334" transform="scale(0.3)"></path>
        <path id="path-t05hdwoe4m-2" d="M0 -37A37 37 0 0 1 0 37A37 37 0 0 1 0 -37" fill="none" stroke="inherit" stroke-width="4.333333333333334" transform="scale(0.3)"></path>
        <path id="path-t05hdwoe4m-3" d="M0 -34.641L40 34.641L-40 34.641Z" fill="none" stroke="inherit" stroke-width="4.333333333333334" transform="scale(0.3)"></path>
    </defs><path id="path0" d="M 43.946171774686775 542.7659520905828
c 0 20.81497382948298 -5.093025511469239 5.978769078681282 -11.071794590150521 5.978769078681282
S 21.80258259438573 563.5809259200657 21.80258259438573 542.7659520905828
s 5.093025511469239 -5.978769078681282 11.071794590150521 -5.978769078681282
S 43.946171774686775 521.9509782610999 43.946171774686775 542.7659520905828
z" fill="none" stroke="none"></path>
        <use xlink:href="#path-t05hdwoe4m-2" x="0" y="0" stroke="#5699d2">
            <animateMotion begin="-0.10253892415565513s" dur="10s" keyPoints="1;0" keyTimes="0;1" repeatCount="indefinite" calcMode="linear">
                <mpath xlink:href="#path0"></mpath>
            </animateMotion>
        </use><path id="path1" d="M 67.41084181999642 320.1885478206127
c 0 38.21641742362942 -9.35082553982422 10.977056068489302 -20.327881608313522 10.977056068489302
S 26.755078603369373 358.40496524424213 26.755078603369373 320.1885478206127
s 9.35082553982422 -10.977056068489302 20.327881608313522 -10.977056068489302
S 67.41084181999642 281.9721303969833 67.41084181999642 320.1885478206127
z" fill="none" stroke="none"></path>
        <use xlink:href="#path-t05hdwoe4m-3" x="0" y="0" stroke="#d8ebf9">
            <animateMotion begin="-7.519982374043832s" dur="10s" keyPoints="0;1" keyTimes="0;1" repeatCount="indefinite" calcMode="linear">
                <mpath xlink:href="#path1"></mpath>
            </animateMotion>
        </use><path id="path2" d="M 88.70843695510294 248.8373489452585
c 0 22.45967028827855 -5.495451240749007 6.451181891314052 -11.946633132063058 6.451181891314052
S 64.81517069097683 271.29701923353707 64.81517069097683 248.8373489452585
s 5.495451240749007 -6.451181891314052 11.946633132063058 -6.451181891314052
S 88.70843695510294 226.37767865697995 88.70843695510294 248.8373489452585
z" fill="none" stroke="none"></path>
        <use xlink:href="#path-t05hdwoe4m-2" x="0" y="0" stroke="#d8ebf9">
            <animateMotion begin="-4.464406400309853s" dur="10s" keyPoints="1;0" keyTimes="0;1" repeatCount="indefinite" calcMode="linear">
                <mpath xlink:href="#path2"></mpath>
            </animateMotion>
        </use><path id="path3" d="M 129.03290638996083 378.73070631641934
c 0 59.63260563935917 -14.590956698992136 17.12851438577338 -31.719471084765516 17.12851438577338
S 65.59396422042978 438.3633119557785 65.59396422042978 378.73070631641934
s 14.590956698992136 -17.12851438577338 31.719471084765516 -17.12851438577338
S 129.03290638996083 319.0981006770602 129.03290638996083 378.73070631641934
z" fill="none" stroke="none"></path>
        <use xlink:href="#path-t05hdwoe4m-3" x="0" y="0" stroke="#5699d2">
            <animateMotion begin="-5.847122341644453s" dur="10s" keyPoints="0;1" keyTimes="0;1" repeatCount="indefinite" calcMode="linear">
                <mpath xlink:href="#path3"></mpath>
            </animateMotion>
        </use><path id="path4" d="M 148.32999752790656 490.40810193094586
c 0 36.221346483520286 -8.862669884265602 10.404003777181359 -19.26667366144696 10.404003777181359
S 109.79665020501264 526.6294484144662 109.79665020501264 490.40810193094586
s 8.862669884265602 -10.404003777181359 19.26667366144696 -10.404003777181359
S 148.32999752790656 454.1867554474256 148.32999752790656 490.40810193094586
z" fill="none" stroke="none"></path>
        <use xlink:href="#path-t05hdwoe4m-1" x="0" y="0" stroke="#d8ebf9">
            <animateMotion begin="-1.6890316476743883s" dur="10s" keyPoints="0;1" keyTimes="0;1" repeatCount="indefinite" calcMode="linear">
                <mpath xlink:href="#path4"></mpath>
            </animateMotion>
        </use><path id="path5" d="M 169.03469421757333 284.78917028248986
c 0 38.84132615351053 -9.503728739688745 11.156551129199833 -20.66027986888858 11.156551129199833
S 127.71413447979617 323.6304964360004 127.71413447979617 284.78917028248986
s 9.503728739688745 -11.156551129199833 20.66027986888858 -11.156551129199833
S 169.03469421757333 245.94784412897934 169.03469421757333 284.78917028248986
z" fill="none" stroke="none"></path>
        <use xlink:href="#path-t05hdwoe4m-1" x="0" y="0" stroke="#5699d2">
            <animateMotion begin="-6.063189551256047s" dur="10s" keyPoints="0;1" keyTimes="0;1" repeatCount="indefinite" calcMode="linear">
                <mpath xlink:href="#path5"></mpath>
            </animateMotion>
        </use><path id="path6" d="M 199.66039771602928 302.1768065379675
c 0 37.302143857699086 -9.127120305607223 10.714445576147611 -19.841565881754832 10.714445576147611
S 159.97726595251962 339.4789503956666 159.97726595251962 302.1768065379675
s 9.127120305607223 -10.714445576147611 19.841565881754832 -10.714445576147611
S 199.66039771602928 264.8746626802684 199.66039771602928 302.1768065379675
z" fill="none" stroke="none"></path>
        <use xlink:href="#path-t05hdwoe4m-2" x="0" y="0" stroke="#5699d2">
            <animateMotion begin="-4.976702141015494s" dur="10s" keyPoints="0;1" keyTimes="0;1" repeatCount="indefinite" calcMode="linear">
                <mpath xlink:href="#path6"></mpath>
            </animateMotion>
        </use><path id="path7" d="M 215.7440538445555 474.22301886375993
c 0 37.17908059683459 -9.097009082204206 10.679097618239721 -19.776106700443925 10.679097618239721
S 176.19184044366764 511.4020994605945 176.19184044366764 474.22301886375993
s 9.097009082204206 -10.679097618239721 19.776106700443925 -10.679097618239721
S 215.7440538445555 437.04393826692535 215.7440538445555 474.22301886375993
z" fill="none" stroke="none"></path>
        <use xlink:href="#path-t05hdwoe4m-3" x="0" y="0" stroke="#1d3f72">
            <animateMotion begin="-4.2662344432671s" dur="10s" keyPoints="0;1" keyTimes="0;1" repeatCount="indefinite" calcMode="linear">
                <mpath xlink:href="#path7"></mpath>
            </animateMotion>
        </use><path id="path8" d="M 265.61293777040737 291.19349835324647
c 0 63.55340010686288 -15.5503000261473 18.254700030694657 -33.80500005684196 18.254700030694657
S 198.00293765672342 354.7468984601094 198.00293765672342 291.19349835324647
s 15.5503000261473 -18.254700030694657 33.80500005684196 -18.254700030694657
S 265.61293777040737 227.6400982463836 265.61293777040737 291.19349835324647
z" fill="none" stroke="none"></path>
        <use xlink:href="#path-t05hdwoe4m-2" x="0" y="0" stroke="#d8ebf9">
            <animateMotion begin="-7.888291481056607s" dur="10s" keyPoints="0;1" keyTimes="0;1" repeatCount="indefinite" calcMode="linear">
                <mpath xlink:href="#path8"></mpath>
            </animateMotion>
        </use><path id="path9" d="M 251.88815541993225 319.329109119064
c 0 30.20806172900861 -7.391334252842531 8.676783688119494 -16.068117940962026 8.676783688119494
S 219.7519195380082 349.5371708480726 219.7519195380082 319.329109119064
s 7.391334252842531 -8.676783688119494 16.068117940962026 -8.676783688119494
S 251.88815541993225 289.1210473900554 251.88815541993225 319.329109119064
z" fill="none" stroke="none"></path>
        <use xlink:href="#path-t05hdwoe4m-2" x="0" y="0" stroke="#d8ebf9">
            <animateMotion begin="-0.06500000990939947s" dur="10s" keyPoints="1;0" keyTimes="0;1" repeatCount="indefinite" calcMode="linear">
                <mpath xlink:href="#path9"></mpath>
            </animateMotion>
        </use><path id="path10" d="M 296.6995283788282 144.26955360969896
c 0 52.54269951481668 -12.85619243447642 15.092051988298408 -27.948244422774827 15.092051988298408
S 240.8030395332785 196.81225312451565 240.8030395332785 144.26955360969896
s 12.85619243447642 -15.092051988298408 27.948244422774827 -15.092051988298408
S 296.6995283788282 91.72685409488227 296.6995283788282 144.26955360969896
z" fill="none" stroke="none"></path>
        <use xlink:href="#path-t05hdwoe4m-2" x="0" y="0" stroke="#5699d2">
            <animateMotion begin="-6.262590191025568s" dur="10s" keyPoints="1;0" keyTimes="0;1" repeatCount="indefinite" calcMode="linear">
                <mpath xlink:href="#path10"></mpath>
            </animateMotion>
        </use><path id="path11" d="M 315.43557993961497 74.60136480481705
c 0 56.018506166328734 -13.70665576410171 16.09042198394549 -29.797077748047197 16.09042198394549
S 255.8414244435206 130.6198709711458 255.8414244435206 74.60136480481705
s 13.70665576410171 -16.09042198394549 29.797077748047197 -16.09042198394549
S 315.43557993961497 18.582858638488318 315.43557993961497 74.60136480481705
z" fill="none" stroke="none"></path>
        <use xlink:href="#path-t05hdwoe4m-1" x="0" y="0" stroke="#1d3f72">
            <animateMotion begin="-4.904281482214379s" dur="10s" keyPoints="0;1" keyTimes="0;1" repeatCount="indefinite" calcMode="linear">
                <mpath xlink:href="#path11"></mpath>
            </animateMotion>
        </use><path id="path12" d="M 328.7463064271628 255.8372287787254
c 0 31.22060757044611 -7.6390848310666 8.96762132342601 -16.60670615449261 8.96762132342601
S 295.5328941181776 287.0578363491715 295.5328941181776 255.8372287787254
s 7.6390848310666 -8.96762132342601 16.60670615449261 -8.96762132342601
S 328.7463064271628 224.6166212082793 328.7463064271628 255.8372287787254
z" fill="none" stroke="none"></path>
        <use xlink:href="#path-t05hdwoe4m-2" x="0" y="0" stroke="#1d3f72">
            <animateMotion begin="-8.968555428218343s" dur="10s" keyPoints="0;1" keyTimes="0;1" repeatCount="indefinite" calcMode="linear">
                <mpath xlink:href="#path12"></mpath>
            </animateMotion>
        </use><path id="path13" d="M 353.002448354853 551.7665174337528
c 0 21.384004382110152 -5.232256391367377 6.142214024648661 -11.374470416016038 6.142214024648661
S 330.25350752282094 573.1505218158629 330.25350752282094 551.7665174337528
s 5.232256391367377 -6.142214024648661 11.374470416016038 -6.142214024648661
S 353.002448354853 530.3825130516427 353.002448354853 551.7665174337528
z" fill="none" stroke="none"></path>
        <use xlink:href="#path-t05hdwoe4m-2" x="0" y="0" stroke="#1d3f72">
            <animateMotion begin="-7.29587721750611s" dur="10s" keyPoints="0;1" keyTimes="0;1" repeatCount="indefinite" calcMode="linear">
                <mpath xlink:href="#path13"></mpath>
            </animateMotion>
        </use><path id="path14" d="M 378.5945834885657 255.3739170021163
c 0 43.276834964923864 -10.589012810566476 12.430580255882388 -23.019593066448863 12.430580255882388
S 332.555397355668 298.65075196704015 332.555397355668 255.3739170021163
s 10.589012810566476 -12.430580255882388 23.019593066448863 -12.430580255882388
S 378.5945834885657 212.09708203719242 378.5945834885657 255.3739170021163
z" fill="none" stroke="none"></path>
        <use xlink:href="#path-t05hdwoe4m-1" x="0" y="0" stroke="#d8ebf9">
            <animateMotion begin="-6.911219838848817s" dur="10s" keyPoints="1;0" keyTimes="0;1" repeatCount="indefinite" calcMode="linear">
                <mpath xlink:href="#path14"></mpath>
            </animateMotion>
        </use><path id="path15" d="M 402.2251616989837 374.2344708786797
c 0 19.439149796462754 -4.756387716155779 5.583585579835046 -10.339973295990825 5.583585579835046
S 381.54521510700204 393.67362067514244 381.54521510700204 374.2344708786797
s 4.756387716155779 -5.583585579835046 10.339973295990825 -5.583585579835046
S 402.2251616989837 354.79532108221696 402.2251616989837 374.2344708786797
z" fill="none" stroke="none"></path>
        <use xlink:href="#path-t05hdwoe4m-3" x="0" y="0" stroke="#1d3f72">
            <animateMotion begin="-2.2890888220028316s" dur="10s" keyPoints="0;1" keyTimes="0;1" repeatCount="indefinite" calcMode="linear">
                <mpath xlink:href="#path15"></mpath>
            </animateMotion>
        </use><path id="path16" d="M 439.1487845922586 293.2592739312852
c 0 48.6170347815597 -11.89565744655184 13.964467437256511 -25.86012488380835 13.964467437256511
S 387.42853482464193 341.8763087128449 387.42853482464193 293.2592739312852
s 11.89565744655184 -13.964467437256511 25.86012488380835 -13.964467437256511
S 439.1487845922586 244.64223914972547 439.1487845922586 293.2592739312852
z" fill="none" stroke="none"></path>
        <use xlink:href="#path-t05hdwoe4m-2" x="0" y="0" stroke="#5699d2">
            <animateMotion begin="-1.4888915637721034s" dur="10s" keyPoints="0;1" keyTimes="0;1" repeatCount="indefinite" calcMode="linear">
                <mpath xlink:href="#path16"></mpath>
            </animateMotion>
        </use><path id="path17" d="M 457.8353878362859 476.0827536319704
c 0 45.513659258227364 -11.136320882332226 13.073072340129135 -24.20939322246136 13.073072340129135
S 409.4166013913632 521.5964128901977 409.4166013913632 476.0827536319704
s 11.136320882332226 -13.073072340129135 24.20939322246136 -13.073072340129135
S 457.8353878362859 430.56909437374304 457.8353878362859 476.0827536319704
z" fill="none" stroke="none"></path>
        <use xlink:href="#path-t05hdwoe4m-2" x="0" y="0" stroke="#5699d2">
            <animateMotion begin="-7.943799664245832s" dur="10s" keyPoints="1;0" keyTimes="0;1" repeatCount="indefinite" calcMode="linear">
                <mpath xlink:href="#path17"></mpath>
            </animateMotion>
        </use><path id="path18" d="M 460.51235523409383 22.97132482279379
c 0 19.079438706219353 -4.668373300457926 5.480264309233219 -10.148637609691145 5.480264309233219
S 440.21508001471153 42.05076352901314 440.21508001471153 22.97132482279379
s 4.668373300457926 -5.480264309233219 10.148637609691145 -5.480264309233219
S 460.51235523409383 3.8918861165744367 460.51235523409383 22.97132482279379
z" fill="none" stroke="none"></path>
        <use xlink:href="#path-t05hdwoe4m-2" x="0" y="0" stroke="#5699d2">
            <animateMotion begin="-1.2572907732294203s" dur="10s" keyPoints="1;0" keyTimes="0;1" repeatCount="indefinite" calcMode="linear">
                <mpath xlink:href="#path18"></mpath>
            </animateMotion>
        </use><path id="path19" d="M 496.70664855845104 276.5283219036067
c 0 45.4956476658862 -11.131913790589175 13.067898797648164 -24.19981258823734 13.067898797648164
S 448.3070233819763 322.0239695694929 448.3070233819763 276.5283219036067
s 11.131913790589175 -13.067898797648164 24.19981258823734 -13.067898797648164
S 496.70664855845104 231.0326742377205 496.70664855845104 276.5283219036067
z" fill="none" stroke="none"></path>
        <use xlink:href="#path-t05hdwoe4m-3" x="0" y="0" stroke="#1d3f72">
            <animateMotion begin="-9.428734372859628s" dur="10s" keyPoints="1;0" keyTimes="0;1" repeatCount="indefinite" calcMode="linear">
                <mpath xlink:href="#path19"></mpath>
            </animateMotion>
        </use><path id="path20" d="M 530.633195015988 501.01961022094616
c 0 52.05456869824983 -12.736756170848361 14.951844200561121 -27.688600371409482 14.951844200561121
S 475.25599427316905 553.074178919196 475.25599427316905 501.01961022094616
s 12.736756170848361 -14.951844200561121 27.688600371409482 -14.951844200561121
S 530.633195015988 448.9650415226963 530.633195015988 501.01961022094616
z" fill="none" stroke="none"></path>
        <use xlink:href="#path-t05hdwoe4m-2" x="0" y="0" stroke="#5699d2">
            <animateMotion begin="-5.586673382060312s" dur="10s" keyPoints="1;0" keyTimes="0;1" repeatCount="indefinite" calcMode="linear">
                <mpath xlink:href="#path20"></mpath>
            </animateMotion>
        </use><path id="path21" d="M 562.5506707013741 133.5990918108417
c 0 61.40774989966111 -15.025300507363887 17.638396247775002 -32.663696755138886 17.638396247775002
S 497.2232771910964 195.00684171050284 497.2232771910964 133.5990918108417
s 15.025300507363887 -17.638396247775002 32.663696755138886 -17.638396247775002
S 562.5506707013741 72.1913419111806 562.5506707013741 133.5990918108417
z" fill="none" stroke="none"></path>
        <use xlink:href="#path-t05hdwoe4m-3" x="0" y="0" stroke="#d8ebf9">
            <animateMotion begin="-6.809600448063788s" dur="10s" keyPoints="1;0" keyTimes="0;1" repeatCount="indefinite" calcMode="linear">
                <mpath xlink:href="#path21"></mpath>
            </animateMotion>
        </use><path id="path22" d="M 567.2364725435191 513.3122932380476
c 0 51.79374529048826 -12.672937677459892 14.876926838757266 -27.549864516217156 14.876926838757266
S 512.1367435110847 565.1060385285358 512.1367435110847 513.3122932380476
s 12.672937677459892 -14.876926838757266 27.549864516217156 -14.876926838757266
S 567.2364725435191 461.51854794755934 567.2364725435191 513.3122932380476
z" fill="none" stroke="none"></path>
        <use xlink:href="#path-t05hdwoe4m-3" x="0" y="0" stroke="#d8ebf9">
            <animateMotion begin="-0.5627021873117188s" dur="10s" keyPoints="0;1" keyTimes="0;1" repeatCount="indefinite" calcMode="linear">
                <mpath xlink:href="#path22"></mpath>
            </animateMotion>
        </use><path id="path23" d="M 592.2618710852207 368.8462734035546
c 0 26.78188479780341 -6.553014365419982 7.692669037666937 -14.24568340308692 7.692669037666937
S 563.7705042790469 395.628158201358 563.7705042790469 368.8462734035546
s 6.553014365419982 -7.692669037666937 14.24568340308692 -7.692669037666937
S 592.2618710852207 342.0643886057512 592.2618710852207 368.8462734035546
z" fill="none" stroke="none"></path>
        <use xlink:href="#path-t05hdwoe4m-3" x="0" y="0" stroke="#5699d2">
            <animateMotion begin="-2.903763072101664s" dur="10s" keyPoints="1;0" keyTimes="0;1" repeatCount="indefinite" calcMode="linear">
                <mpath xlink:href="#path23"></mpath>
            </animateMotion>
        </use><path id="path24" d="M 622.9103775683087 509.6793412267474
c 0 60.63181564558347 -14.835444253706592 17.415521515220785 -32.25096576892738 17.415521515220785
S 558.408446030454 570.3111568723309 558.408446030454 509.6793412267474
s 14.835444253706592 -17.415521515220785 32.25096576892738 -17.415521515220785
S 622.9103775683087 449.04752558116394 622.9103775683087 509.6793412267474
z" fill="none" stroke="none"></path>
        <use xlink:href="#path-t05hdwoe4m-2" x="0" y="0" stroke="#d8ebf9">
            <animateMotion begin="-2.3286730914023424s" dur="10s" keyPoints="0;1" keyTimes="0;1" repeatCount="indefinite" calcMode="linear">
                <mpath xlink:href="#path24"></mpath>
            </animateMotion>
        </use><path id="path25" d="M 632.6561091371931 535.5087213015487
c 0 21.424363956157126 -5.242131606293764 6.153806668257898 -11.395938274551662 6.153806668257898
S 609.8642325880897 556.9330852577058 609.8642325880897 535.5087213015487
s 5.242131606293764 -6.153806668257898 11.395938274551662 -6.153806668257898
S 632.6561091371931 514.0843573453916 632.6561091371931 535.5087213015487
z" fill="none" stroke="none"></path>
        <use xlink:href="#path-t05hdwoe4m-3" x="0" y="0" stroke="#5699d2">
            <animateMotion begin="-2.696612071642177s" dur="10s" keyPoints="0;1" keyTimes="0;1" repeatCount="indefinite" calcMode="linear">
                <mpath xlink:href="#path25"></mpath>
            </animateMotion>
        </use><path id="path26" d="M 671.3440388021004 476.3448225681137
c 0 45.81590640455746 -11.210274971327888 13.159888009819698 -24.370162981147587 13.159888009819698
S 622.6037128398052 522.1607289726712 622.6037128398052 476.3448225681137
s 11.210274971327888 -13.159888009819698 24.370162981147587 -13.159888009819698
S 671.3440388021004 430.5289161635563 671.3440388021004 476.3448225681137
z" fill="none" stroke="none"></path>
        <use xlink:href="#path-t05hdwoe4m-2" x="0" y="0" stroke="#d8ebf9">
            <animateMotion begin="-8.320277701479572s" dur="10s" keyPoints="0;1" keyTimes="0;1" repeatCount="indefinite" calcMode="linear">
                <mpath xlink:href="#path26"></mpath>
            </animateMotion>
        </use><path id="path27" d="M 698.8186984013107 516.7579514322648
c 0 56.816736175829945 -13.901967362171154 16.319700816461793 -30.221668178632946 16.319700816461793
S 638.3753620440448 573.5746876080948 638.3753620440448 516.7579514322648
s 13.901967362171154 -16.319700816461793 30.221668178632946 -16.319700816461793
S 698.8186984013107 459.9412152564349 698.8186984013107 516.7579514322648
z" fill="none" stroke="none"></path>
        <use xlink:href="#path-t05hdwoe4m-1" x="0" y="0" stroke="#d8ebf9">
            <animateMotion begin="-5.948272429306494s" dur="10s" keyPoints="0;1" keyTimes="0;1" repeatCount="indefinite" calcMode="linear">
                <mpath xlink:href="#path27"></mpath>
            </animateMotion>
        </use><path id="path28" d="M 704.9873515394239 313.424501676691
c 0 40.872508248319704 -10.000720103312268 11.739975773453533 -21.740695876765802 11.739975773453533
S 661.5059597858923 354.29700992501074 661.5059597858923 313.424501676691
s 10.000720103312268 -11.739975773453533 21.740695876765802 -11.739975773453533
S 704.9873515394239 272.5519934283713 704.9873515394239 313.424501676691
z" fill="none" stroke="none"></path>
        <use xlink:href="#path-t05hdwoe4m-2" x="0" y="0" stroke="#5699d2">
            <animateMotion begin="-1.9722163008720495s" dur="10s" keyPoints="1;0" keyTimes="0;1" repeatCount="indefinite" calcMode="linear">
                <mpath xlink:href="#path28"></mpath>
            </animateMotion>
        </use><path id="path29" d="M 744.0761767712405 280.0283887164053
c 0 43.91468370586752 -10.745082183350561 12.613792128281096 -23.358874311631656 12.613792128281096
S 697.3584281479772 323.9430724222728 697.3584281479772 280.0283887164053
s 10.745082183350561 -12.613792128281096 23.358874311631656 -12.613792128281096
S 744.0761767712405 236.11370501053779 744.0761767712405 280.0283887164053
z" fill="none" stroke="none"></path>
        <use xlink:href="#path-t05hdwoe4m-3" x="0" y="0" stroke="#5699d2">
            <animateMotion begin="-2.6775313283966318s" dur="10s" keyPoints="0;1" keyTimes="0;1" repeatCount="indefinite" calcMode="linear">
                <mpath xlink:href="#path29"></mpath>
            </animateMotion>
        </use><path id="path30" d="M 756.8005016461634 114.87130567506256
c 0 37.965638773272254 -9.289464806226189 10.90502390296118 -20.194488709187368 10.90502390296118
S 716.4115242277887 152.8369444483348 716.4115242277887 114.87130567506256
s 9.289464806226189 -10.90502390296118 20.194488709187368 -10.90502390296118
S 756.8005016461634 76.90566690179031 756.8005016461634 114.87130567506256
z" fill="none" stroke="none"></path>
        <use xlink:href="#path-t05hdwoe4m-3" x="0" y="0" stroke="#d8ebf9">
            <animateMotion begin="-4.3326118336009785s" dur="10s" keyPoints="0;1" keyTimes="0;1" repeatCount="indefinite" calcMode="linear">
                <mpath xlink:href="#path30"></mpath>
            </animateMotion>
        </use><path id="path31" d="M 790.0013108073191 431.562910149863
c 0 60.82697201069655 -14.883195279212984 17.471577066902203 -32.35477234611518 17.471577066902203
S 725.2917661150888 492.3898821605595 725.2917661150888 431.562910149863
s 14.883195279212984 -17.471577066902203 32.35477234611518 -17.471577066902203
S 790.0013108073191 370.7359381391665 790.0013108073191 431.562910149863
z" fill="none" stroke="none"></path>
        <use xlink:href="#path-t05hdwoe4m-3" x="0" y="0" stroke="#5699d2">
            <animateMotion begin="-3.503938330991807s" dur="10s" keyPoints="0;1" keyTimes="0;1" repeatCount="indefinite" calcMode="linear">
                <mpath xlink:href="#path31"></mpath>
            </animateMotion>
        </use><path id="path32" d="M 822.0792042727483 384.22852446519147
c 0 60.45318644940137 -14.791737109959909 17.364213129083375 -32.155950239043285 17.364213129083375
S 757.7673037946618 444.6817109145928 757.7673037946618 384.22852446519147
s 14.791737109959909 -17.364213129083375 32.155950239043285 -17.364213129083375
S 822.0792042727483 323.7753380157901 822.0792042727483 384.22852446519147
z" fill="none" stroke="none"></path>
        <use xlink:href="#path-t05hdwoe4m-1" x="0" y="0" stroke="#d8ebf9">
            <animateMotion begin="-4.827026891941144s" dur="10s" keyPoints="0;1" keyTimes="0;1" repeatCount="indefinite" calcMode="linear">
                <mpath xlink:href="#path32"></mpath>
            </animateMotion>
        </use><path id="path33" d="M 833.166024001788 252.8630295128412
c 0 43.976475383926584 -10.760201423726716 12.631540801766148 -23.391742225492862 12.631540801766148
S 786.3825395508022 296.8395048967678 786.3825395508022 252.8630295128412
s 10.760201423726716 -12.631540801766148 23.391742225492862 -12.631540801766148
S 833.166024001788 208.8865541289146 833.166024001788 252.8630295128412
z" fill="none" stroke="none"></path>
        <use xlink:href="#path-t05hdwoe4m-3" x="0" y="0" stroke="#d8ebf9">
            <animateMotion begin="-4.840650936587167s" dur="10s" keyPoints="0;1" keyTimes="0;1" repeatCount="indefinite" calcMode="linear">
                <mpath xlink:href="#path33"></mpath>
            </animateMotion>
        </use><path id="path34" d="M 831.6114599437575 220.47351024854532
c 0 27.985907775380934 -6.847615732274058 8.03850542484346 -14.886121157117518 8.03850542484346
S 801.8392176295225 248.45941802392625 801.8392176295225 220.47351024854532
s 6.847615732274058 -8.03850542484346 14.886121157117518 -8.03850542484346
S 831.6114599437575 192.4876024731644 831.6114599437575 220.47351024854532
z" fill="none" stroke="none"></path>
        <use xlink:href="#path-t05hdwoe4m-1" x="0" y="0" stroke="#d8ebf9">
            <animateMotion begin="-8.215590741740256s" dur="10s" keyPoints="1;0" keyTimes="0;1" repeatCount="indefinite" calcMode="linear">
                <mpath xlink:href="#path34"></mpath>
            </animateMotion>
        </use><path id="path35" d="M 876.481320755695 143.95741221919934
c 0 55.18108882520342 -13.501755776379557 15.849887215749918 -29.351642992129477 15.849887215749918
S 817.7780347714362 199.13850104440274 817.7780347714362 143.95741221919934
s 13.501755776379557 -15.849887215749918 29.351642992129477 -15.849887215749918
S 876.481320755695 88.77632339399592 876.481320755695 143.95741221919934
z" fill="none" stroke="none"></path>
        <use xlink:href="#path-t05hdwoe4m-2" x="0" y="0" stroke="#1d3f72">
            <animateMotion begin="-0.4945150229819606s" dur="10s" keyPoints="0;1" keyTimes="0;1" repeatCount="indefinite" calcMode="linear">
                <mpath xlink:href="#path35"></mpath>
            </animateMotion>
        </use><path id="path36" d="M 895.1745805429571 54.04879663530763
c 0 41.39487116043406 -10.128532305212588 11.890016184379997 -22.018548489592582 11.890016184379997
S 851.1374835637719 95.44366779574169 851.1374835637719 54.04879663530763
s 10.128532305212588 -11.890016184379997 22.018548489592582 -11.890016184379997
S 895.1745805429571 12.653925474873574 895.1745805429571 54.04879663530763
z" fill="none" stroke="none"></path>
        <use xlink:href="#path-t05hdwoe4m-2" x="0" y="0" stroke="#5699d2">
            <animateMotion begin="-3.4770115747808306s" dur="10s" keyPoints="1;0" keyTimes="0;1" repeatCount="indefinite" calcMode="linear">
                <mpath xlink:href="#path36"></mpath>
            </animateMotion>
        </use><path id="path37" d="M 902.26685486913 461.2825762654871
c 0 24.23945921514858 -5.930931510089546 6.962397859670337 -12.893329369759883 6.962397859670337
S 876.4801961296104 485.5220354806357 876.4801961296104 461.2825762654871
s 5.930931510089546 -6.962397859670337 12.893329369759883 -6.962397859670337
S 902.26685486913 437.0431170503385 902.26685486913 461.2825762654871
z" fill="none" stroke="none"></path>
        <use xlink:href="#path-t05hdwoe4m-2" x="0" y="0" stroke="#5699d2">
            <animateMotion begin="-7.236332173118729s" dur="10s" keyPoints="1;0" keyTimes="0;1" repeatCount="indefinite" calcMode="linear">
                <mpath xlink:href="#path37"></mpath>
            </animateMotion>
        </use><path id="path38" d="M 951.1800643108096 189.92809783121572
c 0 62.1003610986558 -15.194769204990248 17.83733776237986 -33.032106967370105 17.83733776237986
S 885.1158503760695 252.02845892987153 885.1158503760695 189.92809783121572
s 15.194769204990248 -17.83733776237986 33.032106967370105 -17.83733776237986
S 951.1800643108096 127.82773673255991 951.1800643108096 189.92809783121572
z" fill="none" stroke="none"></path>
        <use xlink:href="#path-t05hdwoe4m-2" x="0" y="0" stroke="#d8ebf9">
            <animateMotion begin="-5.775462630308798s" dur="10s" keyPoints="0;1" keyTimes="0;1" repeatCount="indefinite" calcMode="linear">
                <mpath xlink:href="#path38"></mpath>
            </animateMotion>
        </use><path id="path39" d="M 967.4217847886503 515.7042178392647
c 0 26.965411234903197 -6.597919770242271 7.745384078110493 -14.343303848352765 7.745384078110493
S 938.7351770919447 542.6696290741679 938.7351770919447 515.7042178392647
s 6.597919770242271 -7.745384078110493 14.343303848352765 -7.745384078110493
S 967.4217847886503 488.73880660436157 967.4217847886503 515.7042178392647
z" fill="none" stroke="none"></path>
        <use xlink:href="#path-t05hdwoe4m-1" x="0" y="0" stroke="#d8ebf9">
            <animateMotion begin="-0.5498342250205535s" dur="10s" keyPoints="0;1" keyTimes="0;1" repeatCount="indefinite" calcMode="linear">
                <mpath xlink:href="#path39"></mpath>
            </animateMotion>
        </use><path id="path40" d="M 975.7353399604317 334.5426506677248
c 0 27.359571568469896 -6.694363256114974 7.85860034413497 -14.552963600249944 7.85860034413497
S 946.6294127599317 361.9022222361947 946.6294127599317 334.5426506677248
s 6.694363256114974 -7.85860034413497 14.552963600249944 -7.85860034413497
S 975.7353399604317 307.1830790992549 975.7353399604317 334.5426506677248
z" fill="none" stroke="none"></path>
        <use xlink:href="#path-t05hdwoe4m-2" x="0" y="0" stroke="#d8ebf9">
            <animateMotion begin="-7.742490846847156s" dur="10s" keyPoints="0;1" keyTimes="0;1" repeatCount="indefinite" calcMode="linear">
                <mpath xlink:href="#path40"></mpath>
            </animateMotion>
        </use><path id="path41" d="M 1005.2862198115632 399.28382768816084
c 0 34.65013453126289 -8.4782244065856 9.952698216426576 -18.430922623012176 9.952698216426576
S 968.4243745655389 433.93396221942373 968.4243745655389 399.28382768816084
s 8.4782244065856 -9.952698216426576 18.430922623012176 -9.952698216426576
S 1005.2862198115632 364.63369315689795 1005.2862198115632 399.28382768816084
z" fill="none" stroke="none"></path>
        <use xlink:href="#path-t05hdwoe4m-1" x="0" y="0" stroke="#1d3f72">
            <animateMotion begin="-3.5050475979995777s" dur="10s" keyPoints="0;1" keyTimes="0;1" repeatCount="indefinite" calcMode="linear">
                <mpath xlink:href="#path41"></mpath>
            </animateMotion>
        </use><path id="path42" d="M 1024.6537961068684 500.14689412822
c 0 34.74002518291046 -8.500218927733409 9.978517871687048 -18.478736799420457 9.978517871687048
S 987.6963225080276 534.8869193111304 987.6963225080276 500.14689412822
s 8.500218927733409 -9.978517871687048 18.478736799420457 -9.978517871687048
S 1024.6537961068684 465.40686894530955 1024.6537961068684 500.14689412822
z" fill="none" stroke="none"></path>
        <use xlink:href="#path-t05hdwoe4m-1" x="0" y="0" stroke="#d8ebf9">
            <animateMotion begin="-4.703819643639633s" dur="10s" keyPoints="1;0" keyTimes="0;1" repeatCount="indefinite" calcMode="linear">
                <mpath xlink:href="#path42"></mpath>
            </animateMotion>
        </use><path id="path43" d="M 1045.2197042858284 490.2982405928261
c 0 29.65381137586507 -7.2557198047329425 8.517584118599542 -15.773303923332485 8.517584118599542
S 1013.6730964391635 519.9520519686912 1013.6730964391635 490.2982405928261
s 7.2557198047329425 -8.517584118599542 15.773303923332485 -8.517584118599542
S 1045.2197042858284 460.64442921696104 1045.2197042858284 490.2982405928261
z" fill="none" stroke="none"></path>
        <use xlink:href="#path-t05hdwoe4m-2" x="0" y="0" stroke="#1d3f72">
            <animateMotion begin="-2.8191451143946544s" dur="10s" keyPoints="0;1" keyTimes="0;1" repeatCount="indefinite" calcMode="linear">
                <mpath xlink:href="#path43"></mpath>
            </animateMotion>
        </use><path id="path44" d="M 1078.3090793224733 466.13467254818624
c 0 26.488921734823812 -6.481331913839869 7.608520072768542 -14.08985198660841 7.608520072768542
S 1050.1293753492564 492.62359428301005 1050.1293753492564 466.13467254818624
s 6.481331913839869 -7.608520072768542 14.08985198660841 -7.608520072768542
S 1078.3090793224733 439.64575081336244 1078.3090793224733 466.13467254818624
z" fill="none" stroke="none"></path>
        <use xlink:href="#path-t05hdwoe4m-3" x="0" y="0" stroke="#5699d2">
            <animateMotion begin="-8.580302379287541s" dur="10s" keyPoints="1;0" keyTimes="0;1" repeatCount="indefinite" calcMode="linear">
                <mpath xlink:href="#path44"></mpath>
            </animateMotion>
        </use><path id="path45" d="M 1106.9080136856026 485.26049237629593
c 0 53.138264890952435 -13.001915877573465 15.263118638890592 -28.26503451646406 15.263118638890592
S 1050.3779446526744 538.3987572672484 1050.3779446526744 485.26049237629593
s 13.001915877573465 -15.263118638890592 28.26503451646406 -15.263118638890592
S 1106.9080136856026 432.1222274853435 1106.9080136856026 485.26049237629593
z" fill="none" stroke="none"></path>
        <use xlink:href="#path-t05hdwoe4m-1" x="0" y="0" stroke="#5699d2">
            <animateMotion begin="-4.451857155890034s" dur="10s" keyPoints="0;1" keyTimes="0;1" repeatCount="indefinite" calcMode="linear">
                <mpath xlink:href="#path45"></mpath>
            </animateMotion>
        </use><path id="path46" d="M 1135.5243006305654 69.42799803721883
c 0 58.58775825489678 -14.33530255173006 16.828398647683116 -31.163701199413175 16.828398647683116
S 1073.196898231739 128.0157562921156 1073.196898231739 69.42799803721883
s 14.33530255173006 -16.828398647683116 31.163701199413175 -16.828398647683116
S 1135.5243006305654 10.840239782322051 1135.5243006305654 69.42799803721883
z" fill="none" stroke="none"></path>
        <use xlink:href="#path-t05hdwoe4m-1" x="0" y="0" stroke="#5699d2">
            <animateMotion begin="-0.030289917986172643s" dur="10s" keyPoints="1;0" keyTimes="0;1" repeatCount="indefinite" calcMode="linear">
                <mpath xlink:href="#path46"></mpath>
            </animateMotion>
        </use><path id="path47" d="M 1167.6592105984685 539.1285954997219
c 0 59.99384004735422 -14.679343841373903 17.232273205091104 -31.911617046465008 17.232273205091104
S 1103.8359765055386 599.1224355470761 1103.8359765055386 539.1285954997219
s 14.679343841373903 -17.232273205091104 31.911617046465008 -17.232273205091104
S 1167.6592105984685 479.13475545236764 1167.6592105984685 539.1285954997219
z" fill="none" stroke="none"></path>
        <use xlink:href="#path-t05hdwoe4m-1" x="0" y="0" stroke="#5699d2">
            <animateMotion begin="-7.99158669477052s" dur="10s" keyPoints="1;0" keyTimes="0;1" repeatCount="indefinite" calcMode="linear">
                <mpath xlink:href="#path47"></mpath>
            </animateMotion>
        </use><path id="path48" d="M 1175.9712961336854 280.4030435281586
c 0 41.79689238140483 -10.226899199705436 12.0054903648716 -22.232389564577034 12.0054903648716
S 1131.5065170045314 322.19993590956346 1131.5065170045314 280.4030435281586
s 10.226899199705436 -12.0054903648716 22.232389564577034 -12.0054903648716
S 1175.9712961336854 238.60615114675377 1175.9712961336854 280.4030435281586
z" fill="none" stroke="none"></path>
        <use xlink:href="#path-t05hdwoe4m-3" x="0" y="0" stroke="#1d3f72">
            <animateMotion begin="-6.69770575610489s" dur="10s" keyPoints="0;1" keyTimes="0;1" repeatCount="indefinite" calcMode="linear">
                <mpath xlink:href="#path48"></mpath>
            </animateMotion>
        </use><path id="path49" d="M 1208.243958196831 318.19081456626026
c 0 45.50949668622392 -11.135302380671808 13.071876707745169 -24.20717908841698 13.071876707745169
S 1159.829600019997 363.7003112524842 1159.829600019997 318.19081456626026
s 11.135302380671808 -13.071876707745169 24.20717908841698 -13.071876707745169
S 1208.243958196831 272.6813178800363 1208.243958196831 318.19081456626026
z" fill="none" stroke="none"></path>
        <use xlink:href="#path-t05hdwoe4m-2" x="0" y="0" stroke="#5699d2">
            <animateMotion begin="-8.231668538214976s" dur="10s" keyPoints="1;0" keyTimes="0;1" repeatCount="indefinite" calcMode="linear">
                <mpath xlink:href="#path49"></mpath>
            </animateMotion>
        </use><path id="path50" d="M 1217.938052235672 315.1228312128787
c 0 24.83000145097242 -6.07542588694006 7.132021693364419 -13.207447580304478 7.132021693364419
S 1191.5231570750632 339.9528326638511 1191.5231570750632 315.1228312128787
s 6.07542588694006 -7.132021693364419 13.207447580304478 -7.132021693364419
S 1217.938052235672 290.29282976190626 1217.938052235672 315.1228312128787
z" fill="none" stroke="none"></path>
        <use xlink:href="#path-t05hdwoe4m-1" x="0" y="0" stroke="#1d3f72">
            <animateMotion begin="-7.34228491927349s" dur="10s" keyPoints="1;0" keyTimes="0;1" repeatCount="indefinite" calcMode="linear">
                <mpath xlink:href="#path50"></mpath>
            </animateMotion>
        </use><path id="path51" d="M 1255.3988227512598 355.834547623553
c 0 59.87468954231261 -14.650189994395637 17.19804912385575 -31.848239118251385 17.19804912385575
S 1191.7023445147572 415.7092371658656 1191.7023445147572 355.834547623553
s 14.650189994395637 -17.19804912385575 31.848239118251385 -17.19804912385575
S 1255.3988227512598 295.95985808124044 1255.3988227512598 355.834547623553
z" fill="none" stroke="none"></path>
        <use xlink:href="#path-t05hdwoe4m-2" x="0" y="0" stroke="#1d3f72">
            <animateMotion begin="-0.08099091682507664s" dur="10s" keyPoints="1;0" keyTimes="0;1" repeatCount="indefinite" calcMode="linear">
                <mpath xlink:href="#path51"></mpath>
            </animateMotion>
        </use><path id="path52" d="M 1258.884409243759 204.85885988427003
c 0 43.97455604512508 -10.759731798275284 12.63098950232316 -23.390721300598443 12.63098950232316
S 1212.102966642562 248.8334159293951 1212.102966642562 204.85885988427003
s 10.759731798275284 -12.63098950232316 23.390721300598443 -12.63098950232316
S 1258.884409243759 160.88430383914496 1258.884409243759 204.85885988427003
z" fill="none" stroke="none"></path>
        <use xlink:href="#path-t05hdwoe4m-3" x="0" y="0" stroke="#5699d2">
            <animateMotion begin="-4.618996218093927s" dur="10s" keyPoints="0;1" keyTimes="0;1" repeatCount="indefinite" calcMode="linear">
                <mpath xlink:href="#path52"></mpath>
            </animateMotion>
        </use></g>
</svg>