<svg id="a" data-name="Calque 1" xmlns="http://www.w3.org/2000/svg" viewBox="0 0 152.93 156.95">
  <defs>
    <style>
      .b {
        fill: #535ba5;
      }
    </style>
  </defs>
  <path class="b" d="M79.66,91.63c.01,.11,.03,.21,.05,.32,.42-.22,.83-.44,1.24-.67-.43,.11-.86,.23-1.29,.35Z"/>
  <path class="b" d="M79.66,91.63c.01,.11,.03,.21,.05,.32,.42-.22,.83-.44,1.24-.67-.43,.11-.86,.23-1.29,.35Z"/>
  <g>
    <path class="b" d="M80.32,97.86c.08,1.4,.13,2.8,.13,4.22,0,3.92-.33,7.77-.96,11.51-.66,3.91-1.66,7.71-2.95,11.37-4.56,12.87-12.86,23.97-23.6,31.99,21.5-3.79,39.53-17.61,49.1-36.46,1.15-2.27,2.18-4.61,3.08-7.02,2.74-7.34,4.25-15.27,4.3-23.56v-.38c0-1.02-.02-2.03-.07-3.04-.07-1.56-.18-3.11-.36-4.64-.12-1.12-.28-2.24-.46-3.34-.6-3.71-1.5-7.31-2.67-10.79-.6-1.79-1.28-3.55-2.02-5.28-3.12-7.23-7.45-13.81-12.73-19.5-.21-.22-.42-.44-.62-.66-12.47-13.06-30.05-21.2-49.53-21.2-15.36,0-29.54,5.06-40.96,13.59,3.89-.69,7.9-1.05,11.99-1.05,20.16,0,38.28,8.71,50.81,22.57,1.85,2.05,3.58,4.21,5.17,6.48,4.15,5.89,7.4,12.46,9.54,19.51,.11,.38,.22,.75,.33,1.13,.27,.95,.52,1.92,.76,2.89,.42,1.79,.78,3.6,1.06,5.44,.01,.11,.03,.21,.05,.32,.29,1.94,.49,3.92,.62,5.91Z"/>
    <path class="b" d="M94.6,38.57c.19,.2,.38,.4,.56,.6,5.02,5.41,9.15,11.41,12.32,17.94,2.66-4.3,4.87-8.97,6.57-13.96,4.94-14.54,4.72-29.59,.31-43.15-.6,3.91-1.55,7.82-2.87,11.69-3.58,10.52-9.47,19.61-16.9,26.88Z"/>
  </g>
  <path class="b" d="M110.55,114.71c5.01,1.35,9.76,3.24,14.2,5.6,12.06,6.4,21.82,16.25,28.18,28.04-.59-21.82-11.61-41.69-28.85-53.93-2.88-2.04-5.94-3.88-9.15-5.47,0,.19,0,.38,0,.57v.41c-.05,8.57-1.52,16.87-4.39,24.76Z"/>
</svg>
