<svg xmlns="http://www.w3.org/2000/svg" xmlns:xlink="http://www.w3.org/1999/xlink" viewBox="0,0,256,256" width="64px" height="64px" fill-rule="nonzero"><defs><linearGradient x1="32.042" y1="30.244" x2="32.042" y2="62.143" gradientUnits="userSpaceOnUse" id="color-1"><stop offset="0" stop-color="#014bff"></stop><stop offset="1" stop-color="#004aff"></stop></linearGradient><linearGradient x1="32" y1="5.881" x2="32" y2="63.179" gradientUnits="userSpaceOnUse" id="color-2"><stop offset="0" stop-color="#000000"></stop><stop offset="1" stop-color="#000000"></stop></linearGradient></defs><g fill="none" fill-rule="nonzero" stroke="none" stroke-width="1" stroke-linecap="butt" stroke-linejoin="miter" stroke-miterlimit="10" stroke-dasharray="" stroke-dashoffset="0" font-family="none" font-weight="none" font-size="none" text-anchor="none" style="mix-blend-mode: normal"><g transform="scale(4,4)"><path d="M10.223,20l21.777,15l21.862,-15v25l-21.862,14.721l-21.777,-14.721z" fill="url(#color-1)"></path><path d="M54.513,19.248l-22,-15c-0.309,-0.211 -0.717,-0.211 -1.025,0l-22,15c-0.25,0.169 -0.398,0.451 -0.398,0.752v25c0,0.301 0.148,0.583 0.397,0.752l22,15c0.154,0.105 0.334,0.158 0.513,0.158c0.179,0 0.358,-0.053 0.513,-0.158l22,-15c0.249,-0.169 0.397,-0.451 0.397,-0.752v-25c0,-0.301 -0.148,-0.583 -0.397,-0.752zM21.91,41.722l9.18,6.259v10.296l-9.183,-6.261c0,-0.006 0.003,-0.01 0.003,-0.016zM10.91,21.722l9.18,6.259v10.297l-9.18,-6.259zM21.001,13.602l9.383,6.398l-9.384,6.398l-9.384,-6.398zM52.384,20l-9.384,6.398l-9.384,-6.398l9.384,-6.398zM41.384,27.5l-9.384,6.397l-9.384,-6.397l9.384,-6.399zM21.91,29.222l9.18,6.259v10.297l-9.18,-6.259zM32.91,47.981l9.18,-6.259v10.278c0,0.006 0.003,0.01 0.003,0.016l-9.183,6.261zM32.91,45.778v-10.297l9.18,-6.259v10.297zM43.91,27.981l9.18,-6.259v10.297l-9.18,6.259zM32,6.103l9.384,6.398l-9.384,6.397l-9.384,-6.398zM10.91,34.222l9.18,6.259v10.296l-9.18,-6.259zM43.91,50.777v-10.296l9.18,-6.259v10.296z" fill="url(#color-2)"></path></g></g></svg>