<svg version="1.1" xmlns="http://www.w3.org/2000/svg" xmlns:xlink="http://www.w3.org/1999/xlink" viewBox="0,0,256,256"><g fill="#171717" fill-rule="nonzero" stroke="none" stroke-width="1" stroke-linecap="butt" stroke-linejoin="miter" stroke-miterlimit="10" stroke-dasharray="" stroke-dashoffset="0" font-family="none" font-weight="none" font-size="none" text-anchor="none" style="mix-blend-mode: normal"><g transform="scale(10.66667,10.66667)"><path d="M5,3c-1.103,0 -2,0.897 -2,2v14c0,1.103 0.897,2 2,2v-10h14v10c1.103,0 2,-0.897 2,-2v-14c0,-1.103 -0.897,-2 -2,-2zM5,5h14v4h-14zM7,6c-0.55228,0 -1,0.44772 -1,1c0,0.55228 0.44772,1 1,1c0.55228,0 1,-0.44772 1,-1c0,-0.55228 -0.44772,-1 -1,-1zM10,6c-0.55228,0 -1,0.44772 -1,1c0,0.55228 0.44772,1 1,1c0.55228,0 1,-0.44772 1,-1c0,-0.55228 -0.44772,-1 -1,-1zM13,6v2h4v-2zM12,12c0,0 -3,1 -3,4v3l-0.70703,0.70703c-0.188,0.188 -0.29297,0.44203 -0.29297,0.70703v0.58594h8v-0.58594c0,-0.265 -0.10497,-0.52003 -0.29297,-0.70703l-0.70703,-0.70703v-3c0,-3 -3,-4 -3,-4zM12,14c0.552,0 1,0.448 1,1c0,0.552 -0.448,1 -1,1c-0.552,0 -1,-0.448 -1,-1c0,-0.552 0.448,-1 1,-1zM10,22c0,1.333 2,2 2,2c0,0 2,-0.667 2,-2z"></path></g></g></svg>