<svg version="1.1" xmlns="http://www.w3.org/2000/svg" xmlns:xlink="http://www.w3.org/1999/xlink" viewBox="0,0,256,256"><g fill-rule="nonzero" stroke="none" stroke-width="1" stroke-linecap="butt" stroke-linejoin="miter" stroke-miterlimit="10" stroke-dasharray="" stroke-dashoffset="0" font-family="none" font-weight="none" font-size="none" text-anchor="none" style="mix-blend-mode: normal"><g transform="scale(8.53333,8.53333)"><path d="M15,3c-2.89659,0 -5.56377,1.03014 -7.63867,2.74414c-0.22858,0.18876 -0.36164,0.46919 -0.36328,0.76563c-0.00485,0.76935 -0.57056,1.37479 -1.31445,1.4668c-0.29116,0.03607 -0.55179,0.19816 -0.71289,0.44336c-1.24132,1.88869 -1.9707,4.1525 -1.9707,6.58008c0,4.2293 2.20017,7.95303 5.51367,10.08789c0.30667,0.19766 0.69665,0.21263 1.01758,0.03906c0.15805,-0.08545 0.30845,-0.12695 0.46875,-0.12695c0.48649,0 0.87274,0.33511 0.97266,0.78125c0.07964,0.35606 0.34686,0.6405 0.69727,0.74219c1.05351,0.30411 2.17071,0.47656 3.33008,0.47656c6.61547,0 12,-5.38453 12,-12c0,-6.61547 -5.38453,-12 -12,-12zM15,5c0.09505,0 0.18684,0.01105 0.28125,0.01367c0.75288,0.6292 1.44109,1.33365 2.03906,2.11328c0.213,-0.078 0.43969,-0.12695 0.67969,-0.12695c1.105,0 2,0.895 2,2c0,0.65 -0.31592,1.22094 -0.79492,1.58594c0.41,1.129 0.66023,2.33103 0.74023,3.58203c1.19,0.398 2.05469,1.50803 2.05469,2.83203c0,1.657 -1.343,3 -3,3c-0.003,0 -0.00481,-0.00195 -0.00781,-0.00195c-0.81655,1.95002 -2.09711,3.65558 -3.69922,4.98828c-0.0983,0.00284 -0.19396,0.01367 -0.29297,0.01367c-0.87006,0 -1.70381,-0.1491 -2.51367,-0.36133c-0.51287,-0.92274 -1.36402,-1.63867 -2.48633,-1.63867c-0.25164,0 -0.45046,0.11652 -0.67969,0.17578c-2.59571,-1.80714 -4.32031,-4.76911 -4.32031,-8.17578c0,-1.99163 0.59716,-3.82937 1.59961,-5.38867c1.08856,-0.39651 1.84116,-1.23523 2.11914,-2.37305c1.71972,-1.39307 3.89275,-2.23828 6.28125,-2.23828zM13,8c-1.105,0 -2,0.895 -2,2c0,1.105 0.895,2 2,2c0.366,0 0.705,-0.10634 1,-0.27734c-0.595,-0.347 -1,-0.98466 -1,-1.72266c0,-0.738 0.405,-1.37566 1,-1.72266c-0.295,-0.171 -0.634,-0.27734 -1,-0.27734zM10,14c-1.105,0 -2,0.895 -2,2c0,1.105 0.895,2 2,2c0.366,0 0.705,-0.10634 1,-0.27734c-0.595,-0.347 -1,-0.98466 -1,-1.72266c0,-0.738 0.405,-1.37566 1,-1.72266c-0.295,-0.171 -0.634,-0.27734 -1,-0.27734z"></path></g></g></svg>