<svg version="1.1" xmlns="http://www.w3.org/2000/svg" xmlns:xlink="http://www.w3.org/1999/xlink" viewBox="0,0,256,256"><g fill="none" fill-rule="nonzero" stroke="none" stroke-width="1" stroke-linecap="butt" stroke-linejoin="miter" stroke-miterlimit="10" stroke-dasharray="" stroke-dashoffset="0" font-family="none" font-weight="none" font-size="none" text-anchor="none" style="mix-blend-mode: normal"><g transform="scale(5.33333,5.33333)"><path d="M38,5h-28c-2.757,0 -5,2.243 -5,5v28c0,2.757 2.243,5 5,5h28c2.757,0 5,-2.243 5,-5v-28c0,-2.757 -2.243,-5 -5,-5z" fill="#a2a9ff"></path><path d="M14.734,18.573h-3.142c-0.599,0 -0.971,0.384 -0.971,1v8.987c0,0.616 0.372,1 0.971,1c0.59,0 0.971,-0.393 0.971,-1v-2.728h2.119c2.167,0 3.682,-1.496 3.682,-3.637c0,-2.132 -1.493,-3.622 -3.63,-3.622zM16.386,22.203c0,1.259 -0.742,1.952 -2.091,1.952h-1.731v-3.896h1.738c1.344,0 2.084,0.69 2.084,1.944z" fill="#324561"></path><path d="M27.537,18.456c-0.59,0 -0.971,0.393 -0.971,1v3.586h-5.126v-3.586c0,-0.607 -0.381,-1 -0.971,-1c-0.599,0 -0.971,0.384 -0.971,1v9.104c0,0.616 0.372,1 0.971,1c0.59,0 0.971,-0.393 0.971,-1v-3.798h5.126v3.798c0,0.607 0.381,1 0.971,1c0.59,0 0.971,-0.393 0.971,-1v-9.104c0,-0.607 -0.381,-1 -0.971,-1z" fill="#324561"></path><path d="M34.261,18.573h-3.143c-0.59,0 -0.971,0.393 -0.971,1v8.987c0,0.607 0.381,1 0.971,1c0.59,0 0.971,-0.393 0.971,-1v-2.728h2.121c2.166,0 3.68,-1.496 3.68,-3.637c0,-2.132 -1.493,-3.622 -3.629,-3.622zM35.912,22.203c0,1.259 -0.742,1.952 -2.091,1.952h-1.732v-3.896h1.74c1.344,0 2.083,0.69 2.083,1.944z" fill="#324561"></path></g></g></svg>