<svg version="1.1" xmlns="http://www.w3.org/2000/svg" xmlns:xlink="http://www.w3.org/1999/xlink" viewBox="0,0,256,256"><g fill-rule="nonzero" stroke="none" stroke-width="1" stroke-linecap="butt" stroke-linejoin="miter" stroke-miterlimit="10" stroke-dasharray="" stroke-dashoffset="0" font-family="none" font-weight="none" font-size="none" text-anchor="none" style="mix-blend-mode: normal"><g transform="scale(8.53333,8.53333)"><path d="M26.707,14.293l-2.707,-2.707v-4.586c0,-0.552 -0.448,-1 -1,-1h-4.586l-2.707,-2.707c-0.391,-0.391 -1.023,-0.391 -1.414,0l-2.707,2.707h-4.586c-0.552,0 -1,0.448 -1,1v4.586l-2.707,2.707c-0.391,0.391 -0.391,1.023 0,1.414l2.707,2.707v4.586c0,0.552 0.448,1 1,1h4.586l2.707,2.707c0.195,0.195 0.451,0.293 0.707,0.293c0.256,0 0.512,-0.098 0.707,-0.293l2.707,-2.707h4.586c0.552,0 1,-0.448 1,-1v-4.586l2.707,-2.707c0.391,-0.391 0.391,-1.023 0,-1.414zM15,22c-3.866,0 -7,-3.134 -7,-7c0,-3.866 3.134,-7 7,-7c3.866,0 7,3.134 7,7c0,3.866 -3.134,7 -7,7z"></path></g></g></svg>