<svg version="1.1" xmlns="http://www.w3.org/2000/svg" xmlns:xlink="http://www.w3.org/1999/xlink" viewBox="0,0,256,256"><g  fill-rule="nonzero" stroke="none" stroke-width="1" stroke-linecap="butt" stroke-linejoin="miter" stroke-miterlimit="10" stroke-dasharray="" stroke-dashoffset="0" font-family="none" font-weight="none" font-size="none" text-anchor="none" style="mix-blend-mode: normal"><g transform="scale(8.53333,8.53333)"><path d="M22.56055,2.00977c-1.5203,-0.06033 -3.0597,0.48744 -4.2207,1.64844c-1.49883,1.49883 -1.63306,3.30176 -0.88867,4.99805l-1.07031,1.06836l3.89453,3.89453l1.07031,-1.07031c1.69509,0.74297 3.49756,0.60791 4.99609,-0.89062c1.548,-1.548 2.00577,-3.76775 1.38477,-5.71875l-3.39648,3.39844l-2.93359,-0.73437l-0.73437,-2.93359l3.39844,-3.39844c-0.48775,-0.15525 -0.99323,-0.24161 -1.5,-0.26172zM10,8c-0.70172,0 -1.33867,0.25073 -1.84961,0.6543l-0.0293,0.00977l-4.64258,3.75v0.00586c-0.91439,0.53808 -1.47658,1.51912 -1.47852,2.58008c0.00099,0.75941 0.28995,1.49019 0.80859,2.04492v0.00195l0.00977,0.00977c0.04107,0.04291 0.08341,0.0846 0.12695,0.125l7.44922,7.33008c0.28372,0.31057 0.68481,0.48773 1.10547,0.48828c0.74335,-0.00076 1.37402,-0.54584 1.48242,-1.28125c0.30788,0.1832 0.65932,0.28033 1.01758,0.28125c1.10457,0 2,-0.89543 2,-2c-0.00109,-0.09484 -0.00892,-0.18948 -0.02344,-0.2832c0.30939,0.1849 0.66301,0.28275 1.02344,0.2832c1.10457,0 2,-0.89543 2,-2c1.10457,0 2,-0.89543 2,-2c-0.00038,-0.54706 -0.22484,-1.07009 -0.62109,-1.44727h-0.00195l-7.375,-7.34961l0.99805,-1.20312zM4.55273,21.55273l-1.74609,1.74609c-1.076,1.076 -1.076,2.81953 0,3.89453c1.076,1.076 2.81953,1.076 3.89453,0l1.74609,-1.74609z"></path></g></g></svg>