<svg version="1.1" xmlns="http://www.w3.org/2000/svg" xmlns:xlink="http://www.w3.org/1999/xlink" width="512px" height="512px" viewBox="0,0,256,256"><g fill="none" fill-rule="nonzero" stroke="none" stroke-width="1" stroke-linecap="butt" stroke-linejoin="miter" stroke-miterlimit="10" stroke-dasharray="" stroke-dashoffset="0" font-family="none" font-weight="none" font-size="none" text-anchor="none" style="mix-blend-mode: normal"><g transform="scale(0.5,0.5)"><path d="M76,79.75v-43.45c-0.01216,-11.19689 9.05311,-20.28455 20.25,-20.3h-30c-11.19689,0.01545 -20.26216,9.10311 -20.25,20.3v439.4c-0.01216,11.19689 9.05311,20.28455 20.25,20.3h30c-11.19689,-0.01545 -20.26216,-9.10311 -20.25,-20.3z" fill="#e3ecf9"></path><ellipse cx="313.51961" cy="420.58448" transform="rotate(-0.064)" rx="10.968" ry="10.98" fill="#1ae5be"></ellipse><path d="M345.175,439.8c-4.44218,-0.00485 -8.44963,2.66736 -10.15284,6.77005c-1.70322,4.10268 -0.7666,8.82742 2.37292,11.97009c3.13952,3.14267 7.86332,4.08402 11.9677,2.38492c4.10439,-1.69911 6.78062,-5.70388 6.78022,-10.14605c-0.00385,-6.05764 -4.91036,-10.96908 -10.968,-10.979z" fill="#1ae5be"></path><ellipse cx="313.486" cy="451.129" rx="10.968" ry="10.98" fill="#1ae5be"></ellipse><path d="M345.175,409.257c-4.44218,-0.00485 -8.44963,2.66736 -10.15284,6.77005c-1.70322,4.10268 -0.7666,8.82742 2.37292,11.97009c3.13952,3.14267 7.86332,4.08402 11.9677,2.38492c4.10439,-1.69911 6.78062,-5.70388 6.78022,-10.14605c-0.00385,-6.05764 -4.91036,-10.96908 -10.968,-10.979z" fill="#1ae5be"></path><ellipse cx="377.933" cy="390.057" rx="10.968" ry="10.979" fill="#1ae5be"></ellipse><ellipse cx="-420.14574" cy="409.59256" transform="rotate(-89.936)" rx="10.98" ry="10.968" fill="#1ae5be"></ellipse><path d="M324.06,10h-257.809c-14.50595,0.02703 -26.25103,11.79403 -26.251,26.3v439.4c-0.00003,14.50597 11.74505,26.27297 26.251,26.3h257.809c14.50595,-0.02703 26.25103,-11.79403 26.251,-26.3v-0.85h-12v0.85c0.00554,7.88085 -6.37018,14.27849 -14.251,14.3h-167.86v-48.762h133.16v-12h-133.16v-48.887h182.111v13.628h12v-171.995h-12v23.675h-41.544v12h41.544v49.8h-182.111v-49.8h83.747l3.333,-12h-87.08v-55.629h172.553v-12h-172.553v-60.6h182.111v56.889h12v-138.019c0.00003,-14.50597 -11.74505,-26.27297 -26.251,-26.3zM66.251,22h257.809c7.88082,0.02151 14.25654,6.41915 14.251,14.3v37.45h-286.311v-37.45c-0.00554,-7.88085 6.37018,-14.27849 14.251,-14.3zM338.311,319.463v48.888h-182.111v-48.888zM144.2,490h-77.949c-7.88082,-0.02151 -14.25654,-6.41915 -14.251,-14.3v-358.274h92.2zM52,105.426v-19.68h286.311v19.68z" fill="#0635c9"></path><path d="M68.585,159.325h58.261c3.31371,0 6,-2.68629 6,-6c0,-3.31371 -2.68629,-6 -6,-6h-58.261c-3.31371,0 -6,2.68629 -6,6c0,3.31371 2.68629,6 6,6z" fill="#0635c9"></path><path d="M68.585,220.213h58.261c3.31371,0 6,-2.68629 6,-6c0,-3.31371 -2.68629,-6 -6,-6h-58.261c-3.31371,0 -6,2.68629 -6,6c0,3.31371 2.68629,6 6,6z" fill="#0635c9"></path><path d="M68.585,281.1h58.261c3.31371,0 6,-2.68629 6,-6c0,-3.31371 -2.68629,-6 -6,-6h-58.261c-3.31371,0 -6,2.68629 -6,6c0,3.31371 2.68629,6 6,6z" fill="#0635c9"></path><path d="M68.585,341.988h58.261c3.31371,0 6,-2.68629 6,-6c0,-3.31371 -2.68629,-6 -6,-6h-58.261c-3.31371,0 -6,2.68629 -6,6c0,3.31371 2.68629,6 6,6z" fill="#0635c9"></path><path d="M68.585,406.935h58.261c3.31371,0 6,-2.68629 6,-6c0,-3.31371 -2.68629,-6 -6,-6h-58.261c-3.31371,0 -6,2.68629 -6,6c0,3.31371 2.68629,6 6,6z" fill="#0635c9"></path><path d="M68.585,463.765h58.261c3.31371,0 6,-2.68629 6,-6c0,-3.31371 -2.68629,-6 -6,-6h-58.261c-3.31371,0 -6,2.68629 -6,6c0,3.31371 2.68629,6 6,6z" fill="#0635c9"></path><path d="M240.409,46.091h66.1c3.31371,0 6,-2.68629 6,-6c0,-3.31371 -2.68629,-6 -6,-6h-66.1c-3.31371,0 -6,2.68629 -6,6c0,3.31371 2.68629,6 6,6z" fill="#0635c9"></path><path d="M205.493,46.091h12.928c3.31371,0 6,-2.68629 6,-6c0,-3.31371 -2.68629,-6 -6,-6h-12.928c-3.31371,0 -6,2.68629 -6,6c0,3.31371 2.68629,6 6,6z" fill="#0635c9"></path><path d="M469.4,130.6l-9.522,-15.3c-2.40598,-3.87154 -6.25376,-6.62645 -10.69406,-7.65664c-4.4403,-1.0302 -9.10804,-0.25099 -12.97294,2.16564l-11.025,6.9c-1.45874,-0.83424 -3.03175,-1.45044 -4.669,-1.829c-4.4362,-1.04111 -9.10458,-0.26172 -12.962,2.164c-5.358,3.3575 -8.44432,9.38195 -8.039,15.692l-138.077,86.285c-1.43126,0.89225 -2.66213,2.07136 -3.615,3.463l-27.612,36.5c-0.077,0.1 -0.152,0.208 -0.222,0.316c-1.7505,2.65163 -1.90618,6.04957 -0.40547,8.85015c1.50071,2.80058 4.41616,4.55283 7.59347,4.56385c0.269,0 0.541,-0.013 0.814,-0.038c0.1,-0.009 0.2,-0.022 0.3,-0.036l44.038,-6.34c1.84624,-0.19977 3.62366,-0.81332 5.2,-1.795l140.757,-87.963c2.0374,0.83809 4.21996,1.26659 6.423,1.261c8.94165,-0.02433 16.36484,-6.91307 17.056,-15.828l12.156,-7.7c8.02619,-5.04221 10.47366,-15.61975 5.478,-23.675zM254.41,258.2l-3.861,-6.206l13.59,-17.963l1.629,8.83c0.36914,2.43169 1.64449,4.63372 3.57,6.164c0.062,0.049 0.125,0.1 0.189,0.145l7.806,5.733zM276.259,233.584l-1.6,-8.671l129.458,-80.9l4.331,6.962zM289.632,249.047l-7.114,-5.225l132.27,-82.659l4.332,6.963zM437.4,165.017c-1.16258,0.72598 -2.56638,0.95917 -3.90125,0.64807c-1.33486,-0.31111 -2.49092,-1.14091 -3.21275,-2.30607v0l-18.027,-28.975c-1.51436,-2.43696 -0.77573,-5.63948 1.653,-7.167c0.81504,-0.51254 1.7582,-0.78464 2.721,-0.785c0.39445,0.00066 0.78758,0.0456 1.172,0.134c1.33937,0.3083 2.49943,1.14026 3.221,2.31l18.028,28.977c1.51273,2.43649 0.77374,5.63727 -1.654,7.164zM457.523,144.117l-9.238,5.853l-15.028,-24.16l9.32,-5.836c1.16244,-0.72652 2.56641,-0.96002 3.90144,-0.64888c1.33502,0.31114 2.4911,1.1413 3.21256,2.30688l9.521,15.3c1.51939,2.45057 0.76508,5.66882 -1.685,7.189z" fill="#1ae5be"></path><path d="M411.718,358.892h-36.381c-15.55762,0.03088 -28.15382,12.65035 -28.156,28.208v0.881h-35.639c-15.55624,0.01708 -28.16326,12.62277 -28.182,28.179v36.513c0.01764,15.55702 12.62498,28.16392 28.182,28.181h36.33c15.55702,-0.01708 28.16436,-12.62398 28.182,-28.181v-0.906h35.664c15.557,-0.03143 28.15272,-12.64997 28.156,-28.207v-36.46c-0.00218,-15.55765 -12.59838,-28.17712 -28.156,-28.208zM364.054,452.673c-0.01047,8.93257 -7.24943,16.17108 -16.182,16.181h-36.33c-8.93257,-0.00992 -16.17153,-7.24843 -16.182,-16.181v-36.513c0.01047,-8.93257 7.24943,-16.17108 16.182,-16.181h36.33c8.93257,0.00992 16.17153,7.24843 16.182,16.181zM427.874,423.56c0.00389,8.93259 -7.22344,16.18274 -16.156,16.207h-35.664v-23.607c-0.01292,-11.18554 -6.63141,-21.30764 -16.873,-25.805v-3.255c-0.00334,-8.9322 7.22383,-16.18174 16.156,-16.206h36.381c8.93217,0.02426 16.15934,7.2738 16.156,16.206z" fill="#1ae5be"></path></g></g></svg>